<?xml version="1.0" encoding="utf-8"?>
<svg xmlns="http://www.w3.org/2000/svg" fill="none" height="20" viewBox="0 0 20 20" width="20">
<path d="M10 20C15.5228 20 20 15.5228 20 9.99998C20 4.47719 15.5228 6.10352e-05 10 6.10352e-05C4.47715 6.10352e-05 0 4.47719 0 9.99998C0 15.5228 4.47715 20 10 20Z" fill="#1977F3"/>
<path d="M13.8931 12.8905L14.3361 9.99909H11.5629V8.12318C11.5629 7.33286 11.9497 6.56081 13.1928 6.56081H14.4542V4.09984C14.4542 4.09984 13.3095 3.90436 12.2154 3.90436C9.93167 3.90436 8.43817 5.28814 8.43817 7.79552V9.99909H5.89844V12.8905H8.43817V19.8782C8.94725 19.9584 9.469 19.9991 10.0005 19.9991C10.5321 19.9991 11.0538 19.957 11.5629 19.8782V12.8905H13.8931Z" fill="white"/>
</svg>